<svg xmlns="http://www.w3.org/2000/svg" width="1200" height="630" viewBox="0 0 1200 630" role="img" aria-labelledby="title desc">
  <title id="title">Deekshith's Portfolio</title>
  <desc id="desc">Blogs, Projects, Resume, Rants and more</desc>
  <rect width="1200" height="630" fill="#fff9ec"/>

  <path d="M1012 -72c105 23 175 110 164 205s-95 163-205 154c-110-10-185-92-168-187 17-96 104-194 209-172Z" fill="#ffbe0b" opacity=".25"/>
  <path d="M72 380c82-58 204-52 248 22 44 75-4 172-97 206-92 33-205-7-231-88-26-80-2-81 80-140Z" fill="#ff6b35" opacity=".22"/>
  <path d="M1012 358c62-35 153-15 184 43 31 57-1 129-72 158-70 30-153 2-184-62-31-63 10-104 72-139Z" fill="#ff2d6f" opacity=".15"/>
  <path d="M180 70c41-15 91 3 108 38 16 36-9 75-55 87-46 11-95-10-106-48-12-37 12-62 53-77Z" fill="#ff2d6f" opacity=".12"/>

  <g transform="translate(86 72) rotate(-1.4)">
    <rect x="0" y="0" width="270" height="54" rx="27" fill="#ffbe0b" stroke="#140800" stroke-width="4"/>
    <text x="135" y="35" text-anchor="middle" font-family="Arial, Helvetica, sans-serif" font-size="18" font-weight="900" letter-spacing="3" fill="#140800">COMING SOON</text>
  </g>

  <g transform="translate(86 162)">
    <text x="0" y="110" font-family="Arial Black, Arial, Helvetica, sans-serif" font-size="100" font-weight="900" letter-spacing="-4" fill="#140800">Deekshith's</text>
    <text x="0" y="222" font-family="Arial Black, Arial, Helvetica, sans-serif" font-size="112" font-weight="900" letter-spacing="-5" fill="#ff6b35" text-decoration="line-through" text-decoration-color="#ff2d6f" text-decoration-thickness="7">Portfolio</text>
  </g>

  <g transform="translate(88 444)">
    <rect x="0" y="0" width="710" height="82" rx="20" fill="#ffffff" stroke="#140800" stroke-width="5"/>
    <rect x="12" y="12" width="710" height="82" rx="20" fill="none" stroke="#140800" stroke-width="0"/>
    <text x="40" y="52" font-family="Arial, Helvetica, sans-serif" font-size="32" font-weight="800" fill="#6a3208">Blogs, Projects, Resume, Rants &amp; more</text>
  </g>

  <g transform="translate(872 410)">
    <rect x="0" y="0" width="220" height="118" rx="20" fill="#140800"/>
    <rect x="12" y="12" width="220" height="118" rx="20" fill="#ff6b35"/>
    <text x="110" y="70" text-anchor="middle" font-family="Arial Black, Arial, Helvetica, sans-serif" font-size="52" font-weight="900" fill="#fff9ec">DR</text>
  </g>
</svg>
